<?xml version="1.0" encoding="utf-8"?>
<!-- Generator: Adobe Illustrator 22.0.1, SVG Export Plug-In . SVG Version: 6.00 Build 0)  -->
<svg version="1.1" id="Layer_1" xmlns="http://www.w3.org/2000/svg" xmlns:xlink="http://www.w3.org/1999/xlink" x="0px" y="0px"
	 viewBox="0 0 2379.3 552.8" style="enable-background:new 0 0 2379.3 552.8;" xml:space="preserve">
<style type="text/css">
	.st0{fill:#005180;}
	.st1{fill:#808285;}
</style>
<g>
	<g>
		<path class="st0" d="M28.3,25.9h39.1l198.5,285.6h0.9V25.9h30.4V352H258L59.6,66.4h-0.9V352H28.3V25.9z"/>
		<path class="st0" d="M355.1,188.9c0-24.9,4.1-47.8,12.4-68.6c8.3-20.9,19.8-38.9,34.5-54.1c14.7-15.2,32.5-27.1,53.2-35.7
			c20.7-8.6,43.5-12.9,68.4-12.9c24.9,0,47.7,4.3,68.4,12.9c20.7,8.6,38.5,20.5,53.2,35.7s26.3,33.2,34.5,54.1
			c8.2,20.9,12.4,43.8,12.4,68.6c0,24.9-4.1,47.8-12.4,68.9s-19.8,39.1-34.5,54.4c-14.7,15.2-32.5,27-53.2,35.5
			c-20.7,8.4-43.5,12.7-68.4,12.7c-24.9,0-47.7-4.2-68.4-12.7c-20.7-8.4-38.5-20.3-53.2-35.5s-26.3-33.3-34.5-54.4
			C359.3,236.8,355.1,213.8,355.1,188.9z M385.5,188.9c0,20.3,3.2,39.1,9.7,56.7c6.5,17.5,15.7,32.7,27.6,45.6s26.5,23,43.5,30.4
			s36.2,11.1,57.4,11.1c21.2,0,40.3-3.7,57.3-11.1s31.5-17.5,43.5-30.4s21.2-28.1,27.6-45.6c6.4-17.5,9.7-36.4,9.7-56.7
			c0-20.3-3.2-39.2-9.7-56.7c-6.5-17.5-15.7-32.7-27.6-45.6c-12-12.9-26.5-23-43.5-30.4s-36.2-11.1-57.3-11.1
			c-21.2,0-40.3,3.7-57.4,11.1c-17,7.4-31.5,17.5-43.5,30.4s-21.2,28.1-27.6,45.6C388.7,149.8,385.5,168.7,385.5,188.9z"/>
		<path class="st0" d="M750.1,25.9h85.7c4.3,0,10.1,0.1,17.5,0.4c7.4,0.3,15.3,1.2,24,2.8c8.6,1.5,17.3,4,26.3,7.4
			c8.9,3.4,16.9,8.3,24,14.7s12.9,14.6,17.5,24.4c4.6,9.8,6.9,21.8,6.9,35.9c0,15.7-2.7,28.6-8.1,38.7s-12.3,18.4-20.4,24.7
			s-17.1,11-26.9,14c-9.8,3.1-19.2,5.2-28.1,6.4l94.9,156.6h-34.5l-91.7-154.8h-56.7v154.8h-30.4V25.9z M780.5,169.6H845
			c16,0,28.9-2,38.9-6s17.7-8.9,23.3-14.7c5.5-5.8,9.3-12.1,11.3-18.9c2-6.7,3-12.9,3-18.4s-1-11.7-3-18.4s-5.8-13-11.3-18.9
			c-5.5-5.8-13.3-10.7-23.3-14.7s-23-6-38.9-6h-64.5V169.6z"/>
		<path class="st0" d="M1437.8,180.7L1326.3,25.9h35.9l94,132.6l92.6-132.6h36.4l-110.5,154.8l121.1,171.4H1558l-103.2-147.4
			l-103.2,147.4h-36.4L1437.8,180.7z"/>
		<path class="st0" d="M1597.4,188.9c0-24.9,4.1-47.8,12.4-68.6c8.3-20.9,19.8-38.9,34.5-54.1c14.7-15.2,32.5-27.1,53.2-35.7
			c20.7-8.6,43.5-12.9,68.4-12.9s47.7,4.3,68.4,12.9c20.7,8.6,38.5,20.5,53.2,35.7s26.3,33.2,34.5,54.1
			c8.3,20.9,12.4,43.8,12.4,68.6c0,24.9-4.1,47.8-12.4,68.9c-8.3,21-19.8,39.1-34.5,54.4c-14.7,15.2-32.5,27-53.2,35.5
			c-20.7,8.4-43.5,12.7-68.4,12.7s-47.7-4.2-68.4-12.7c-20.7-8.4-38.5-20.3-53.2-35.5s-26.3-33.3-34.5-54.4
			C1601.5,236.8,1597.4,213.8,1597.4,188.9z M1627.8,188.9c0,20.3,3.2,39.1,9.7,56.7c6.4,17.5,15.7,32.7,27.6,45.6
			c12,12.9,26.5,23,43.5,30.4s36.2,11.1,57.4,11.1s40.3-3.7,57.4-11.1c17-7.4,31.5-17.5,43.5-30.4s21.2-28.1,27.6-45.6
			s9.7-36.4,9.7-56.7c0-20.3-3.2-39.2-9.7-56.7c-6.4-17.5-15.7-32.7-27.6-45.6c-12-12.9-26.5-23-43.5-30.4s-36.2-11.1-57.4-11.1
			s-40.3,3.7-57.4,11.1c-17,7.4-31.5,17.5-43.5,30.4s-21.2,28.1-27.6,45.6C1631,149.8,1627.8,168.7,1627.8,188.9z"/>
		<path class="st0" d="M1992.4,25.9h39.1L2230,311.5h0.9V25.9h30.4V352h-39.1L2023.7,66.4h-0.9V352h-30.4V25.9z"/>
		<polygon class="st0" points="1144,59.1 1264,352 1298.3,352 1161,25.9 1129.7,25.9 987.4,352 1019.2,352 		"/>
	</g>
	<g>
		<g>
			<path class="st1" d="M39.5,429.9l38.1,91.3H78l38.2-91.3h11.2v103.6h-8.5v-45.8l0.7-45.3l-0.4-0.1l-38.5,91.3h-5.9l-38.4-90.8
				l-0.4,0.1l0.8,45v45.8h-8.5V429.9H39.5z"/>
			<path class="st1" d="M251.3,490.2c0,13.4-3.7,24.2-11,32.5s-17.2,12.4-29.5,12.4c-12.1,0-21.8-4.1-29.1-12.4
				c-7.2-8.3-10.9-19.1-10.9-32.5v-16.9c0-13.3,3.6-24.2,10.8-32.5s16.9-12.5,29-12.5c12.3,0,22.2,4.2,29.5,12.5
				c7.4,8.3,11,19.1,11,32.5v16.9H251.3z M242.8,473.2c0-11.2-2.8-20.3-8.5-27.1s-13.5-10.3-23.6-10.3c-9.9,0-17.6,3.4-23.1,10.3
				s-8.3,15.9-8.3,27.1v17c0,11.3,2.8,20.4,8.3,27.2c5.5,6.8,13.2,10.3,23.1,10.3c10.1,0,18-3.4,23.6-10.2
				c5.6-6.8,8.4-15.9,8.4-27.3v-17H242.8z"/>
			<path class="st1" d="M322.5,516l2.1,6.9h0.4l2.1-6.9l31.1-86.1h9.3l-38.7,103.6h-8L282,429.9h9.3L322.5,516z"/>
			<path class="st1" d="M464.4,483.4h-49.9v42.9h57.1v7.3H406V429.9h65.3v7.3h-56.8v38.9h49.9L464.4,483.4L464.4,483.4z"/>
			<path class="st1" d="M522.7,429.9l38.1,91.3h0.4l38.2-91.3h11.2v103.6h-8.5v-45.8l0.7-45.3l-0.4-0.1l-38.5,91.3H558l-38.4-90.9
				l-0.4,0.1l0.8,45v45.8h-8.5V429.9H522.7z"/>
			<path class="st1" d="M716.2,483.4h-49.9v42.9h57.2v7.3h-65.6V429.9h65.3v7.3h-56.8v38.9h49.9v7.2H716.2z"/>
			<path class="st1" d="M839.6,533.5h-8.5l-58.9-89.1l-0.4,0.1v89.1h-8.5V429.9h8.5l58.9,89l0.4-0.1v-88.9h8.5V533.5z"/>
			<path class="st1" d="M958.6,437.1h-35.7v96.4h-8.5v-96.4h-35.7v-7.2h79.9V437.1z"/>
			<path class="st1" d="M1112,533.5V429.9h30.1c12.7,0,23.1,4.2,31.4,12.7c8.3,8.4,12.4,19.3,12.4,32.5v13.3
				c0,13.3-4.1,24.1-12.4,32.5s-18.7,12.6-31.4,12.6H1112z M1120.5,437.1v89.1h21.6c10.3,0,18.7-3.6,25.3-10.7
				c6.6-7.2,9.9-16.2,9.9-27.2v-13.5c0-10.8-3.3-19.8-10-27c-6.6-7.2-15.1-10.7-25.3-10.7L1120.5,437.1L1120.5,437.1z"/>
			<path class="st1" d="M1282.6,504.6h-47.5l-10.7,28.9h-8.8L1255,430h8l39.1,103.6h-8.8L1282.6,504.6z M1238,497h41.9l-20.6-56.1
				h-0.4L1238,497z"/>
			<path class="st1" d="M1397.6,437.1h-35.7v96.4h-8.5v-96.4h-35.7v-7.2h79.9L1397.6,437.1L1397.6,437.1z"/>
			<path class="st1" d="M1480.2,504.6h-47.5l-10.7,28.9h-8.8l39.4-103.6h8l39.1,103.6h-8.8L1480.2,504.6z M1435.6,497h41.9
				l-20.6-56.1h-0.4L1435.6,497z"/>
			<path class="st1" d="M1660.5,490.5v43.1h-8.5V429.9h35.7c10.9,0,19.3,2.8,25.2,8.3c6,5.5,8.9,12.8,8.9,22s-3,16.6-8.9,22.1
				c-6,5.5-14.4,8.3-25.2,8.3L1660.5,490.5L1660.5,490.5z M1660.5,483.2h27.2c8.5,0,15-2.2,19.3-6.5s6.4-9.8,6.4-16.4
				c0-6.6-2.1-12.2-6.4-16.6s-10.7-6.6-19.3-6.6h-27.2V483.2z"/>
			<path class="st1" d="M1821.1,483.4h-49.9v42.9h57.2v7.3h-65.6V429.9h65.3v7.3h-56.8v38.9h49.9L1821.1,483.4L1821.1,483.4z"/>
			<path class="st1" d="M1942.7,490.2c0,13.4-3.7,24.2-11,32.5s-17.2,12.4-29.5,12.4c-12.1,0-21.8-4.1-29.1-12.4
				c-7.2-8.3-10.9-19.1-10.9-32.5v-16.9c0-13.3,3.6-24.2,10.8-32.5c7.2-8.3,16.9-12.5,29-12.5c12.3,0,22.2,4.2,29.5,12.5
				s11,19.1,11,32.5v16.9H1942.7z M1934.2,473.2c0-11.2-2.8-20.3-8.5-27.1s-13.5-10.3-23.6-10.3c-9.9,0-17.6,3.4-23.1,10.3
				s-8.3,15.9-8.3,27.1v17c0,11.3,2.8,20.4,8.3,27.2c5.5,6.8,13.2,10.3,23.1,10.3c10.1,0,18-3.4,23.6-10.2
				c5.6-6.8,8.4-15.9,8.4-27.3L1934.2,473.2L1934.2,473.2z"/>
			<path class="st1" d="M1994.5,490.5v43.1h-8.5V429.9h35.7c10.9,0,19.3,2.8,25.2,8.3c6,5.5,8.9,12.8,8.9,22s-3,16.6-8.9,22.1
				c-6,5.5-14.4,8.3-25.2,8.3L1994.5,490.5L1994.5,490.5z M1994.5,483.2h27.2c8.5,0,15-2.2,19.3-6.5s6.4-9.8,6.4-16.4
				c0-6.6-2.1-12.2-6.4-16.6c-4.3-4.4-10.7-6.6-19.3-6.6h-27.2V483.2z"/>
			<path class="st1" d="M2105.3,526.4h51.3v7.3h-59.8V429.9h8.5V526.4z"/>
			<path class="st1" d="M2254.1,483.4h-49.9v42.9h57.2v7.3h-65.6V429.9h65.3v7.3h-56.8v38.9h49.9L2254.1,483.4L2254.1,483.4z"/>
		</g>
		<polygon class="st1" points="1021.6,458.1 1021.6,513 1043.6,486.4 		"/>
		<polygon class="st1" points="1568.3,458.1 1568.3,513 1590.3,486.4 		"/>
	</g>
	<g>
		<path class="st0" d="M2313.9,30h-9.3v28.5h-4.5V30h-9.6v-4.2h23.4L2313.9,30L2313.9,30z M2346.7,35.2l-0.4-0.1l-9.8,23.4h-3.1
			l-10.1-24.3l-0.4,0.1v24.3h-4.4V25.9h5.7l10.4,25.8h0.4l10.6-25.8h5.4v32.7h-4.4V35.2H2346.7z"/>
	</g>
</g>
</svg>
