<svg xmlns="http://www.w3.org/2000/svg" xmlns:xlink="http://www.w3.org/1999/xlink" viewBox="0 0 147.34 39.93"><defs><linearGradient id="linear-gradient" x1="322.73" y1="200.41" x2="330.72" y2="184.99" gradientTransform="translate(-313.16 -171.05)" gradientUnits="userSpaceOnUse"><stop offset="0.01" stop-color="#c41230"/><stop offset="1" stop-color="#fff"/></linearGradient><linearGradient id="linear-gradient-2" x1="342.23" y1="210.52" x2="350.22" y2="195.11" xlink:href="#linear-gradient"/></defs><title>fabcom-logo</title><g style="isolation:isolate"><g id="Layer_1" data-name="Layer 1"><path d="M56.76,39h0.7v0.8h-0.7V39Zm0,1.49h0.7v4.47h-0.7V40.45Z" transform="translate(-7.82 -6.53)" style="fill:#231f20"/><path d="M58.51,40.45h0.67V41h0a1.19,1.19,0,0,1,1.08-.64,1.13,1.13,0,0,1,1.18,1.42v3.17h-0.7V41.83a0.71,0.71,0,0,0-.66-0.9,0.86,0.86,0,0,0-.89.9v3.09h-0.7V40.45Z" transform="translate(-7.82 -6.53)" style="fill:#231f20"/><path d="M62.74,39.14h0.7v1.3h0.78V41H63.44v2.87c0,0.36.09,0.5,0.46,0.5a2.25,2.25,0,0,0,.31,0v0.58a2.92,2.92,0,0,1-.57,0,0.75,0.75,0,0,1-.9-0.88V41H62.08V40.45h0.65v-1.3Z" transform="translate(-7.82 -6.53)" style="fill:#231f20"/><path d="M65.42,42.77c0,0.68,0,1.72.86,1.72a0.88,0.88,0,0,0,.76-1h0.7A1.51,1.51,0,0,1,66.24,45c-1.09,0-1.55-.76-1.55-2.3,0-1.12.22-2.41,1.59-2.41s1.5,1.19,1.5,2.15v0.28H65.42ZM67,42.21V42a0.9,0.9,0,0,0-.78-1.09A1,1,0,0,0,65.44,42v0.17H67Z" transform="translate(-7.82 -6.53)" style="fill:#231f20"/><path d="M71.64,44.64c0,1.34-.62,1.82-1.52,1.82a1.3,1.3,0,0,1-1.47-1.12h0.7a0.63,0.63,0,0,0,.72.57,0.81,0.81,0,0,0,.87-1V44.32h0a1.06,1.06,0,0,1-1,.6c-1.3,0-1.39-1.64-1.39-2.24,0-1.21.33-2.35,1.46-2.35A1,1,0,0,1,71,41h0V40.45h0.67v4.19Zm-2.38-2c0,0.73.11,1.64,0.81,1.64S71,43.6,71,42.68s-0.15-1.75-.9-1.75S69.26,41.61,69.26,42.68Z" transform="translate(-7.82 -6.53)" style="fill:#231f20"/><path d="M72.7,40.45h0.7v0.67h0a1.09,1.09,0,0,1,1-.78,0.73,0.73,0,0,1,.31,0v0.69a1.9,1.9,0,0,0-.37,0,1,1,0,0,0-.92,1.06v2.83H72.7V40.45Z" transform="translate(-7.82 -6.53)" style="fill:#231f20"/><path d="M75.15,41.8a1.27,1.27,0,0,1,1.5-1.47A1.12,1.12,0,0,1,78,41.61v2.5c0,0.18,0,.36.22,0.36a0.24,0.24,0,0,0,.17,0v0.5A2.37,2.37,0,0,1,78,45a0.52,0.52,0,0,1-.63-0.58h0a1.27,1.27,0,0,1-1.08.64A1.13,1.13,0,0,1,75,43.74a1.16,1.16,0,0,1,.84-1.24l0.94-.28a0.54,0.54,0,0,0,.51-0.68,0.62,0.62,0,0,0-.72-0.66,0.76,0.76,0,0,0-.77.87v0h-0.7Zm2.16,0.68a5.78,5.78,0,0,1-1.19.53,0.72,0.72,0,0,0-.34.71,0.63,0.63,0,0,0,.64.77,0.91,0.91,0,0,0,.9-0.85V42.48Z" transform="translate(-7.82 -6.53)" style="fill:#231f20"/><path d="M79.35,39.14H80v1.3h0.78V41H80v2.87c0,0.36.09,0.5,0.46,0.5a2.22,2.22,0,0,0,.31,0v0.58a2.87,2.87,0,0,1-.57,0,0.75,0.75,0,0,1-.9-0.88V41H78.7V40.45h0.65v-1.3Z" transform="translate(-7.82 -6.53)" style="fill:#231f20"/><path d="M82,42.77c0,0.68,0,1.72.86,1.72a0.88,0.88,0,0,0,.76-1h0.7A1.52,1.52,0,0,1,82.85,45c-1.09,0-1.55-.76-1.55-2.3,0-1.12.21-2.41,1.59-2.41s1.49,1.19,1.49,2.15v0.28H82Zm1.62-.55V42a0.9,0.9,0,0,0-.78-1.09A1,1,0,0,0,82.06,42v0.17h1.59Z" transform="translate(-7.82 -6.53)" style="fill:#231f20"/><path d="M88.26,44.92H87.59V44.37h0a1,1,0,0,1-1,.67c-1.06,0-1.46-.94-1.46-2.35,0-.94.15-2.35,1.41-2.35a1.09,1.09,0,0,1,1,.63h0V39h0.7v6Zm-1.56-.48c0.78,0,.9-0.74.9-1.75,0-.87-0.15-1.75-0.9-1.75s-0.82.68-.82,1.75S86,44.44,86.69,44.44Z" transform="translate(-7.82 -6.53)" style="fill:#231f20"/><path d="M93.11,41.75c0-.57-0.15-0.87-0.66-0.87a0.65,0.65,0,0,0-.73.68c0,0.53.55,0.63,1.1,0.81a1.23,1.23,0,0,1,1.09,1.26A1.31,1.31,0,0,1,92.47,45a1.37,1.37,0,0,1-1.54-1.59h0.7a0.84,0.84,0,0,0,.83,1,0.7,0.7,0,0,0,.74-0.74c0-.6-0.55-0.73-1.1-0.91A1.21,1.21,0,0,1,91,41.56a1.26,1.26,0,0,1,1.43-1.23,1.22,1.22,0,0,1,1.36,1.43h-0.7Z" transform="translate(-7.82 -6.53)" style="fill:#231f20"/><path d="M95,39.14h0.7v1.3H96.5V41H95.72v2.87c0,0.36.09,0.5,0.46,0.5a2.23,2.23,0,0,0,.31,0v0.58a2.92,2.92,0,0,1-.57,0,0.75,0.75,0,0,1-.9-0.88V41H94.37V40.45H95v-1.3Z" transform="translate(-7.82 -6.53)" style="fill:#231f20"/><path d="M97.24,40.45h0.7v0.67h0a1.09,1.09,0,0,1,1-.78,0.75,0.75,0,0,1,.31,0v0.69a2,2,0,0,0-.38,0,1,1,0,0,0-.92,1.06v2.83h-0.7V40.45Z" transform="translate(-7.82 -6.53)" style="fill:#231f20"/><path d="M99.7,41.8a1.27,1.27,0,0,1,1.5-1.47,1.12,1.12,0,0,1,1.36,1.29v2.5c0,0.18,0,.36.22,0.36a0.24,0.24,0,0,0,.17,0v0.5a2.41,2.41,0,0,1-.41,0,0.52,0.52,0,0,1-.64-0.58h0a1.27,1.27,0,0,1-1.08.64,1.13,1.13,0,0,1-1.22-1.3,1.16,1.16,0,0,1,.84-1.24l0.94-.28a0.54,0.54,0,0,0,.51-0.68,0.62,0.62,0,0,0-.72-0.66,0.76,0.76,0,0,0-.77.87v0H99.7Zm2.16,0.68a5.84,5.84,0,0,1-1.2.53,0.72,0.72,0,0,0-.34.71,0.63,0.63,0,0,0,.63.77,0.91,0.91,0,0,0,.9-0.85V42.48Z" transform="translate(-7.82 -6.53)" style="fill:#231f20"/><path d="M103.91,39.14h0.7v1.3h0.78V41h-0.78v2.87c0,0.36.09,0.5,0.46,0.5a2.28,2.28,0,0,0,.31,0v0.58a2.92,2.92,0,0,1-.57,0,0.75,0.75,0,0,1-.9-0.88V41h-0.65V40.45h0.65v-1.3Z" transform="translate(-7.82 -6.53)" style="fill:#231f20"/><path d="M106.6,42.77c0,0.68,0,1.72.86,1.72a0.88,0.88,0,0,0,.76-1h0.7a1.51,1.51,0,0,1-1.5,1.59c-1.09,0-1.55-.76-1.55-2.3,0-1.12.22-2.41,1.6-2.41S109,41.52,109,42.48v0.28H106.6Zm1.62-.55V42a0.9,0.9,0,0,0-.78-1.09,1,1,0,0,0-.82,1.17v0.17h1.59Z" transform="translate(-7.82 -6.53)" style="fill:#231f20"/><path d="M112.82,44.64c0,1.34-.62,1.82-1.52,1.82a1.3,1.3,0,0,1-1.47-1.12h0.7a0.63,0.63,0,0,0,.72.57,0.81,0.81,0,0,0,.87-1V44.32h0a1.06,1.06,0,0,1-1,.6c-1.3,0-1.39-1.64-1.39-2.24,0-1.21.33-2.35,1.46-2.35a1,1,0,0,1,1,.68h0V40.45h0.67v4.19Zm-2.38-2c0,0.73.11,1.64,0.81,1.64s0.91-.72.91-1.64-0.15-1.75-.9-1.75S110.44,41.61,110.44,42.68Z" transform="translate(-7.82 -6.53)" style="fill:#231f20"/><path d="M113.88,39h0.7v0.8h-0.7V39Zm0,1.49h0.7v4.47h-0.7V40.45Z" transform="translate(-7.82 -6.53)" style="fill:#231f20"/><path d="M117.79,41.81a0.79,0.79,0,0,0-.71-0.93c-0.43,0-.87.21-0.87,1.85,0,0.59,0,1.75.85,1.75a0.92,0.92,0,0,0,.74-1.12h0.7A1.5,1.5,0,0,1,117,45c-1.09,0-1.55-.76-1.55-2.3,0-1.12.22-2.41,1.59-2.41a1.35,1.35,0,0,1,1.43,1.48h-0.7Z" transform="translate(-7.82 -6.53)" style="fill:#231f20"/><path d="M121.3,40.45H122V41h0a1.19,1.19,0,0,1,1.08-.64,0.88,0.88,0,0,1,1,.71,1.24,1.24,0,0,1,1.06-.71,1.13,1.13,0,0,1,1.17,1.42v3.17h-0.7V41.83a0.71,0.71,0,0,0-.6-0.9,0.82,0.82,0,0,0-.84.9v3.09h-0.7V41.83a0.71,0.71,0,0,0-.6-0.9,0.82,0.82,0,0,0-.83.9v3.09h-0.7V40.45Z" transform="translate(-7.82 -6.53)" style="fill:#231f20"/><path d="M127.26,41.8a1.27,1.27,0,0,1,1.5-1.47,1.12,1.12,0,0,1,1.36,1.29v2.5c0,0.18,0,.36.22,0.36a0.23,0.23,0,0,0,.16,0v0.5a2.32,2.32,0,0,1-.41,0,0.52,0.52,0,0,1-.63-0.58h0a1.27,1.27,0,0,1-1.08.64,1.13,1.13,0,0,1-1.22-1.3A1.16,1.16,0,0,1,128,42.5l0.94-.28a0.54,0.54,0,0,0,.51-0.68,0.62,0.62,0,0,0-.72-0.66,0.76,0.76,0,0,0-.77.87v0h-0.7Zm2.16,0.68a5.77,5.77,0,0,1-1.19.53,0.72,0.72,0,0,0-.34.71,0.63,0.63,0,0,0,.63.77,0.91,0.91,0,0,0,.9-0.85V42.48Z" transform="translate(-7.82 -6.53)" style="fill:#231f20"/><path d="M131.24,40.45h0.7v0.67h0a1.09,1.09,0,0,1,1-.78,0.74,0.74,0,0,1,.31,0v0.69a1.9,1.9,0,0,0-.37,0,1,1,0,0,0-.92,1.06v2.83h-0.7V40.45Z" transform="translate(-7.82 -6.53)" style="fill:#231f20"/><path d="M137.25,44.92h-0.82l-1.25-2.21-0.58.7v1.51h-0.7V39h0.7v3.55h0l1.57-2.06H137l-1.36,1.69Z" transform="translate(-7.82 -6.53)" style="fill:#231f20"/><path d="M138.29,42.77c0,0.68,0,1.72.86,1.72a0.88,0.88,0,0,0,.76-1h0.7a1.51,1.51,0,0,1-1.5,1.59c-1.09,0-1.55-.76-1.55-2.3,0-1.12.22-2.41,1.59-2.41s1.49,1.19,1.49,2.15v0.28h-2.35Zm1.62-.55V42a0.9,0.9,0,0,0-.78-1.09,1,1,0,0,0-.82,1.17v0.17h1.59Z" transform="translate(-7.82 -6.53)" style="fill:#231f20"/><path d="M141.8,39.14h0.7v1.3h0.78V41H142.5v2.87c0,0.36.09,0.5,0.46,0.5a2.28,2.28,0,0,0,.31,0v0.58a2.9,2.9,0,0,1-.57,0,0.75,0.75,0,0,1-.9-0.88V41h-0.65V40.45h0.65v-1.3Z" transform="translate(-7.82 -6.53)" style="fill:#231f20"/><path d="M144,39h0.7v0.8H144V39Zm0,1.49h0.7v4.47H144V40.45Z" transform="translate(-7.82 -6.53)" style="fill:#231f20"/><path d="M145.73,40.45h0.67V41h0a1.2,1.2,0,0,1,1.09-.64,1.13,1.13,0,0,1,1.18,1.42v3.17H148V41.83a0.71,0.71,0,0,0-.66-0.9,0.86,0.86,0,0,0-.89.9v3.09h-0.7V40.45Z" transform="translate(-7.82 -6.53)" style="fill:#231f20"/><path d="M152.67,44.64c0,1.34-.62,1.82-1.52,1.82a1.3,1.3,0,0,1-1.47-1.12h0.7a0.63,0.63,0,0,0,.72.57,0.81,0.81,0,0,0,.87-1V44.32h0a1.06,1.06,0,0,1-1,.6c-1.3,0-1.39-1.64-1.39-2.24,0-1.21.33-2.35,1.46-2.35a1,1,0,0,1,1,.68h0V40.45h0.67v4.19Zm-2.38-2c0,0.73.11,1.64,0.81,1.64s0.91-.72.91-1.64-0.15-1.75-.9-1.75S150.29,41.61,150.29,42.68Z" transform="translate(-7.82 -6.53)" style="fill:#231f20"/><circle cx="17.39" cy="17.39" r="15.2" style="fill:#c41230"/><g style="opacity:0.30000000000000004"><path d="M12.14,26.93l0.8-.33a12.49,12.49,0,0,1-.28-1.9,13.23,13.23,0,0,1,8.4-13.3A13.22,13.22,0,0,0,11.85,25,13.75,13.75,0,0,0,12.14,26.93Z" transform="translate(-7.82 -6.53)" style="fill:url(#linear-gradient)"/><path d="M27.62,37.38l0-.86A13.71,13.71,0,0,0,29.45,36a13.23,13.23,0,0,0,8.67-13.13A13.22,13.22,0,0,1,27.62,37.38Z" transform="translate(-7.82 -6.53)" style="fill:url(#linear-gradient-2)"/></g><path d="M29.27,30.18c-0.31-2.37-3-5.52-3.64-6.75s-1.43-2.91-1.54-3.14-0.45-.68-0.29.07c0,0.21.08,0.4,0.12,0.6,0.27,0.59.83,1.78,1.38,2.8C26,25,28.63,28.14,28.93,30.51a2.5,2.5,0,0,1-.33,1.86A2.14,2.14,0,0,0,29.27,30.18Z" transform="translate(-7.82 -6.53)" style="fill:#231f20;opacity:0.30000000000000004;mix-blend-mode:multiply"/><path d="M28.94,17.33c-0.8-1.37-1.9-1.73-2.13-2.5a3.94,3.94,0,0,0-.29.41c0.27,0.71,1.31,1.1,2.08,2.41a2.26,2.26,0,0,1,.22,2.54C29.66,19.58,29.63,18.53,28.94,17.33Z" transform="translate(-7.82 -6.53)" style="fill:#231f20;opacity:0.30000000000000004;mix-blend-mode:multiply"/><path d="M21.12,18.83l2-4a3.25,3.25,0,0,1,0-.91A7.68,7.68,0,0,0,21,15.46a7.46,7.46,0,0,1,1.73-1.21,3.26,3.26,0,0,0,0,.91s-1.39,2.86-2,4a24.53,24.53,0,0,0-2,6c0,0.5,0,1,0,1.57A24.37,24.37,0,0,1,21.12,18.83Z" transform="translate(-7.82 -6.53)" style="fill:#231f20;opacity:0.30000000000000004;mix-blend-mode:multiply"/><path d="M17.31,35.21a0.8,0.8,0,0,1-.65-0.85,0.69,0.69,0,0,1,.06-0.26,0.65,0.65,0,0,0-.39.59,0.86,0.86,0,0,0,.18.57l0.32,0.23,0.14,0c0.26,0.37.64,0,.66,0.41,0,0,0,.06,0,0.09L18,36.27c0-.22,0-0.43,0-0.65C17.95,35.17,17.57,35.58,17.31,35.21Z" transform="translate(-7.82 -6.53)" style="fill:#231f20;opacity:0.30000000000000004;mix-blend-mode:multiply"/><path d="M33.7,23.46a0.63,0.63,0,0,0,.6-0.4L34,23.14c-0.94.14-1.61-1.11-2.79-1.3a12,12,0,0,1-2.72-1.34,2,2,0,0,1-.45.28c0.93,0.39,1.86,1.25,2.84,1.4C32.1,22.36,32.76,23.61,33.7,23.46Z" transform="translate(-7.82 -6.53)" style="fill:#231f20;opacity:0.30000000000000004;mix-blend-mode:multiply"/><path d="M29.74,33.62V33.37a27.2,27.2,0,0,1-4.92-.18c-1.59-.08-4.25-0.33-4.25-0.33a16.86,16.86,0,0,1-1.95-.33A0.87,0.87,0,0,1,18.48,32c-2.14-6.7-2-12.76,2.26-17.28C16.18,19.28,16,25.47,18.15,32.33a0.87,0.87,0,0,0,.14.53,18.3,18.3,0,0,0,1.95.32s2.67,0.25,4.26.33a27.09,27.09,0,0,0,4.91.19h0A2.4,2.4,0,0,0,29.74,33.62Z" transform="translate(-7.82 -6.53)" style="fill:#231f20;opacity:0.30000000000000004;mix-blend-mode:multiply"/><path d="M31.64,32.28a2.32,2.32,0,0,0-.22.2v0.09a3.42,3.42,0,0,0,1.49-1A4.15,4.15,0,0,1,31.64,32.28Z" transform="translate(-7.82 -6.53)" style="fill:#231f20;opacity:0.30000000000000004;mix-blend-mode:multiply"/><path d="M25.4,10.47a11.48,11.48,0,0,1-.79,1.2,4.7,4.7,0,0,0,.9-1.17C25.48,10.45,25.44,10.43,25.4,10.47Z" transform="translate(-7.82 -6.53)" style="fill:#231f20;opacity:0.30000000000000004;mix-blend-mode:multiply"/><path d="M25.22,9.62A14.26,14.26,0,0,0,15,14,14.29,14.29,0,0,1,35.08,34.28,14.3,14.3,0,0,0,25.22,9.62Z" transform="translate(-7.82 -6.53)" style="fill:#231f20;opacity:0.30000000000000004;mix-blend-mode:multiply"/><path d="M32.28,35.67c0.12,0,.24-0.06.31-0.08a0.76,0.76,0,0,0,.49-0.4l-0.16.07A0.72,0.72,0,0,0,32.28,35.67Z" transform="translate(-7.82 -6.53)" style="fill:#231f20;opacity:0.30000000000000004;mix-blend-mode:multiply"/><path d="M35.3,21a3.62,3.62,0,0,1-.75.46l0.05,0.12a7,7,0,0,0,.58-0.4A0.34,0.34,0,0,0,35.3,21Z" transform="translate(-7.82 -6.53)" style="fill:#231f20;opacity:0.30000000000000004;mix-blend-mode:multiply"/><path d="M25.22,6.53a17.4,17.4,0,1,0,17.4,17.39A17.42,17.42,0,0,0,25.22,6.53Zm7,29.84s0-.4,0-0.61a0.64,0.64,0,0,1,.68-0.5,0.84,0.84,0,0,0,.17-1.53A9,9,0,0,0,31.43,33V32.47a2.32,2.32,0,0,1,.22-0.2c2.79-1,2-2.81,1.59-3.54-0.08-.14-3.86-4.46-4-4.59s-3.57-4-3.61-5.58a5.65,5.65,0,0,1,1.15-3.74c0.23,0.77,1.32,1.13,2.13,2.5s0.71,2.55-.54,3.1c0.93,0.39,1.86,1.25,2.84,1.4C32.43,22,33.1,23.28,34,23.14a0.71,0.71,0,0,0,.7-0.75,1.17,1.17,0,0,0-.19-0.92,4.39,4.39,0,0,0,1-.62,1,1,0,0,0,.22-0.46c0.35-.68-1.34-2.3-1.8-2.61-1-.68-3.1-3.44-3.54-3.69-0.64-.37-2.65-1.54-3-1.67-1.31-.54-1.38-2.57-1.66-2.27a5.87,5.87,0,0,1-1.23,1.61c-7.82,4.63-8.68,12-6,20.25a0.87,0.87,0,0,0,.15.52,16.86,16.86,0,0,0,1.95.33s2.66,0.25,4.25.33a27.2,27.2,0,0,0,4.92.18v0.25a11.36,11.36,0,0,1-4.19.34c-2.78-.08-4.88-0.2-7.32-0.38,0,0-1.56-.14-1.57.78a0.8,0.8,0,0,0,.65.85c0.26,0.37.64,0,.66,0.41,0,0.22,0,.44,0,0.65A14.3,14.3,0,1,1,32.26,36.37Zm-8.46-16c-0.16-.75.18-0.3,0.29-0.07s0.84,1.83,1.54,3.14,3.33,4.39,3.64,6.75-1.35,2.5-1.55,2.52A18.15,18.15,0,0,1,24,32.6C24.07,32.26,25.67,29.1,23.8,20.35Zm-0.72-5.53-2,4a24.37,24.37,0,0,0-2.28,7.94c-0.1-4.24-.31-6.81.8-9.31a7.53,7.53,0,0,1,3.43-3.55A3.25,3.25,0,0,0,23.08,14.82Z" transform="translate(-7.82 -6.53)" style="fill:#231f20"/><g style="opacity:0.5"><path d="M31.3,32.6l0,0Z" transform="translate(-7.82 -6.53)" style="fill:#ed1c24"/><path d="M19.63,7.62A17.4,17.4,0,0,1,42,27.77l0.06,0a17.69,17.69,0,0,0,.4-3.73A17.39,17.39,0,0,0,19.58,7.58Z" transform="translate(-7.82 -6.53)" style="fill:#fff"/><path d="M17.76,36.38a14.29,14.29,0,0,1-5.6-18.49l0,0a14.29,14.29,0,0,0,5.63,18.64S17.76,36.43,17.76,36.38Z" transform="translate(-7.82 -6.53)" style="fill:#fff"/><path d="M19.74,17.1l0,0a5.91,5.91,0,0,0-.32.63c-1.11,2.49-.9,5.06-0.8,9.31,0-.19,0-0.39.07-0.58-0.11-3.94-.26-6.41.81-8.8A6,6,0,0,1,19.74,17.1Z" transform="translate(-7.82 -6.53)" style="fill:#fff"/><path d="M28.15,32.7a2,2,0,0,1-.6.16,18.16,18.16,0,0,1-3.73-.1c0.08-.34,1.68-3.5-0.18-12.25a1.21,1.21,0,0,1,0-.32c-0.08,0-.12,0,0,0.4,1.86,8.75.27,11.91,0.19,12.25a18.77,18.77,0,0,0,3.73.1,2,2,0,0,0,.7-0.22Z" transform="translate(-7.82 -6.53)" style="fill:#fff"/><path d="M25.39,34.13c-2.78-.08-4.88-0.2-7.33-0.38a2.89,2.89,0,0,0-.73,0l-0.11.09a3.12,3.12,0,0,1,.75,0c2.44,0.18,4.54.3,7.33,0.38a11.3,11.3,0,0,0,4.19-.33V33.82A11.83,11.83,0,0,1,25.39,34.13Z" transform="translate(-7.82 -6.53)" style="fill:#fff"/><path d="M33.26,34.84l0.06,0a0.82,0.82,0,0,0-.38-1,9.16,9.16,0,0,0-1.67-.77v-0.5l-0.08.09v0.49a9.35,9.35,0,0,1,1.67.76A0.84,0.84,0,0,1,33.26,34.84Z" transform="translate(-7.82 -6.53)" style="fill:#fff"/><path d="M33.07,28.9c-0.09-.14-3.86-4.47-4-4.59s-3.56-4-3.6-5.57a6,6,0,0,1,.76-3.16l0,0a6,6,0,0,0-.82,3.26c0,1.56,3.39,5.32,3.61,5.57S32.9,28.84,33,29a2.48,2.48,0,0,1,.36,1.9h0A2.41,2.41,0,0,0,33.07,28.9Z" transform="translate(-7.82 -6.53)" style="fill:#fff"/><path d="M34.48,22.63a0.61,0.61,0,0,1,0,.11l0.07,0,0-.15a1.12,1.12,0,0,0-.18-0.88l-0.1,0A1.15,1.15,0,0,1,34.48,22.63Z" transform="translate(-7.82 -6.53)" style="fill:#fff"/><path d="M33.76,17.94c-1-.67-3.1-3.43-3.54-3.69-0.64-.37-2.65-1.54-3-1.68-1-.41-1.29-1.73-1.49-2.15l-0.07.11c0.2,0.46.48,1.72,1.48,2.13,0.34,0.14,2.35,1.31,3,1.67,0.44,0.26,2.53,3,3.54,3.7,0.44,0.3,2,1.81,1.83,2.53l0.07,0C35.86,19.83,34.21,18.24,33.76,17.94Z" transform="translate(-7.82 -6.53)" style="fill:#fff"/></g><path d="M62.29,20.27V21h-3v8.75c0,1.56,0,2.53.06,2.93a1.26,1.26,0,0,0,.51.93,2.88,2.88,0,0,0,1.59.32h0.76v0.77H54.34V34a4,4,0,0,0,1.7-.25A1.1,1.1,0,0,0,56.64,33a22.8,22.8,0,0,0,.12-3.17V21H54.09V20.27h2.67V19a24.74,24.74,0,0,1,.18-3.39,6.33,6.33,0,0,1,1-2.48,5.71,5.71,0,0,1,2.06-2,6,6,0,0,1,3-.69,5.78,5.78,0,0,1,3.33.86A2.32,2.32,0,0,1,67.53,13a1.1,1.1,0,0,1-.36.84,1.17,1.17,0,0,1-.84.34,2.2,2.2,0,0,1-1.73-1.47,2.55,2.55,0,0,0-2.24-1.61,2.71,2.71,0,0,0-1.94.81,3.33,3.33,0,0,0-1,2q-0.15,1.21-.15,5.2v1.1h3Z" transform="translate(-7.82 -6.53)" style="fill:#231f20"/><path d="M79.36,32.07H80q-0.16,3-3,3a2.72,2.72,0,0,1-1.91-.64,3.15,3.15,0,0,1-.91-1.88A18.42,18.42,0,0,1,71,34.46a6.72,6.72,0,0,1-2.63.64,4,4,0,0,1-2.54-.85A2.7,2.7,0,0,1,64.71,32a3.92,3.92,0,0,1,1.79-3.17,22.44,22.44,0,0,1,4.93-2.64L74.2,25.1V24.38a8.84,8.84,0,0,0-.19-2.2A2.24,2.24,0,0,0,73,21a3.89,3.89,0,0,0-2.16-.54q-2.68,0-3,1.8t-1.48,1.84a0.93,0.93,0,0,1-1.08-1,3.09,3.09,0,0,1,1.44-2.17,7,7,0,0,1,4.47-1.16,7.13,7.13,0,0,1,3.49.7A3.65,3.65,0,0,1,76.32,22a7.09,7.09,0,0,1,.4,2.74v5.81a9.4,9.4,0,0,0,.22,2.62,0.89,0.89,0,0,0,.94.58C78.67,33.76,79.16,33.2,79.36,32.07ZM74.2,25.92l-1.95.78q-4.62,1.83-4.62,4.62a2.6,2.6,0,0,0,.59,1.78,2,2,0,0,0,1.54.67,4.61,4.61,0,0,0,2-.54,14.6,14.6,0,0,0,2.49-1.62V25.92Z" transform="translate(-7.82 -6.53)" style="fill:#231f20"/><path d="M82.28,35.3H81.61V15.88a20.79,20.79,0,0,0-.11-2.74,1.35,1.35,0,0,0-.58-0.92,3.13,3.13,0,0,0-1.62-.3V11.14a15.73,15.73,0,0,0,2.48-.24,9.1,9.1,0,0,0,2-.48h0.37V21.92a9.42,9.42,0,0,1,2.52-1.66,6.55,6.55,0,0,1,2.59-.55,6.69,6.69,0,0,1,5.14,2.17,7.81,7.81,0,0,1,2,5.53A8,8,0,0,1,94.33,33,6.9,6.9,0,0,1,89,35.3a5.77,5.77,0,0,1-2.83-.67,5.49,5.49,0,0,1-2-2A9.3,9.3,0,0,0,82.28,35.3Zm1.85-12.36v5.64a11.8,11.8,0,0,0,.3,3.14,3.85,3.85,0,0,0,1.41,1.84,4.1,4.1,0,0,0,2.61.88,4.3,4.3,0,0,0,3.66-1.87,9,9,0,0,0,1.36-5.38,8.08,8.08,0,0,0-1.27-4.92,4,4,0,0,0-3.38-1.68,5.24,5.24,0,0,0-2.38.58A8.7,8.7,0,0,0,84.13,22.94Z" transform="translate(-7.82 -6.53)" style="fill:#231f20"/><path d="M110.11,31.2h0.77q-1.2,4.1-6,4.1a7.05,7.05,0,0,1-5.19-2.1,7.49,7.49,0,0,1-2.11-5.55,7.6,7.6,0,0,1,2.28-5.74,7.47,7.47,0,0,1,5.38-2.2,7.29,7.29,0,0,1,3.44.82,2.38,2.38,0,0,1,1.57,2,1.35,1.35,0,0,1-.29.83,1,1,0,0,1-.82.39,1.39,1.39,0,0,1-1.4-1.35,2.64,2.64,0,0,0-.66-1.43,2.87,2.87,0,0,0-1.79-.4,4.14,4.14,0,0,0-3.58,1.64,8.37,8.37,0,0,0-1.2,4.95,9.58,9.58,0,0,0,1.28,5.33,4.34,4.34,0,0,0,3.88,1.92A4.2,4.2,0,0,0,110.11,31.2Z" transform="translate(-7.82 -6.53)" style="fill:#231f20"/><path d="M111.6,27.48a7.5,7.5,0,0,1,2.23-5.54,7.86,7.86,0,0,1,11,0A7.53,7.53,0,0,1,127,27.48a7.4,7.4,0,0,1-2.26,5.73,7.76,7.76,0,0,1-5.46,2.09,7.67,7.67,0,0,1-5.46-2.12A7.44,7.44,0,0,1,111.6,27.48Zm2.92,0.09q0,3.84,1.26,5.37a4.86,4.86,0,0,0,7.09,0c0.82-1,1.24-2.82,1.24-5.37s-0.42-4.34-1.23-5.42a4.75,4.75,0,0,0-7.14,0Q114.52,23.75,114.52,27.57Z" transform="translate(-7.82 -6.53)" style="fill:#231f20"/><path d="M132,19.71h0.17a7.62,7.62,0,0,1,.52,3,8.53,8.53,0,0,1,2.55-2.27,6,6,0,0,1,2.94-.76,4.82,4.82,0,0,1,2.9.81,4.25,4.25,0,0,1,1.55,2.42,10.41,10.41,0,0,1,2.76-2.42,5.73,5.73,0,0,1,2.88-.81,5,5,0,0,1,2.85.78,3.07,3.07,0,0,1,1.42,1.77,14.43,14.43,0,0,1,.25,3.2v4.35a24.73,24.73,0,0,0,.1,3.08,1.1,1.1,0,0,0,.57.81,4,4,0,0,0,1.74.26v0.77h-7.23V34a3.6,3.6,0,0,0,1.62-.26,1.08,1.08,0,0,0,.58-0.78,24.91,24.91,0,0,0,.11-3.13V25a11.06,11.06,0,0,0-.17-2.22,2.2,2.2,0,0,0-.88-1.28,3,3,0,0,0-1.85-.53,4.16,4.16,0,0,0-2.32.78,10,10,0,0,0-2.33,2.35V29.8c0,1.55,0,2.52.06,2.92a1.25,1.25,0,0,0,.5.92,2.64,2.64,0,0,0,1.54.33v0.77h-6.92V34a3.73,3.73,0,0,0,1.63-.25,1.09,1.09,0,0,0,.57-0.76,22.39,22.39,0,0,0,.11-3.15v-4A17.69,17.69,0,0,0,140,23a2.36,2.36,0,0,0-.91-1.46,2.92,2.92,0,0,0-1.9-.61,4.28,4.28,0,0,0-2.24.71,10,10,0,0,0-2.33,2.11v6q0,2.39.07,3a1.2,1.2,0,0,0,.55.89A3.39,3.39,0,0,0,135,34v0.77h-7.13V34a3.61,3.61,0,0,0,1.63-.26,1.11,1.11,0,0,0,.57-0.77,25.77,25.77,0,0,0,.1-3.14V25.46c0-1.65,0-2.67-.08-3a1.12,1.12,0,0,0-.55-0.84,3.47,3.47,0,0,0-1.68-.28V20.53A19,19,0,0,0,132,19.71Z" transform="translate(-7.82 -6.53)" style="fill:#231f20"/></g></g></svg>